<svg xmlns="http://www.w3.org/2000/svg" viewBox="0 0 100 100"><defs><style>.cls-1{fill:#f06292;}</style></defs><g id="Layer_3" data-name="Layer 3"><path class="cls-1" d="M65.33,78.4H34.78c-1.07-.23-2.16-.36-3.18-.69a14.15,14.15,0,0,1-9.88-13.58q0-14.08,0-28.18a13.64,13.64,0,0,1,2.62-8.24,14,14,0,0,1,11.9-6q13.69,0,27.4,0a16.13,16.13,0,0,1,2.86.21,13.79,13.79,0,0,1,10.89,8.85,29.26,29.26,0,0,1,1,4V65.33l-.21,1.19a13.87,13.87,0,0,1-8.81,10.85A28.25,28.25,0,0,1,65.33,78.4ZM38.24,50.05A11.82,11.82,0,1,0,50.08,38.23,11.85,11.85,0,0,0,38.24,50.05ZM65.41,38.22a3.54,3.54,0,1,0-3.53-3.55A3.54,3.54,0,0,0,65.41,38.22Z"/></g></svg>