<svg xmlns="http://www.w3.org/2000/svg" viewBox="0 0 100 100"><defs><style>.cls-1{fill:#f06292;}.cls-2{fill:#fafafa;}</style></defs><g id="background"><rect class="cls-1" x="0.39" y="0.39" width="99.21" height="99.21" rx="49.61"/></g><g id="Layer_3" data-name="Layer 3"><path class="cls-2" d="M65.33,78.31H34.78a27.62,27.62,0,0,1-3.18-.69A14.13,14.13,0,0,1,21.72,64q0-14.09,0-28.17a13.6,13.6,0,0,1,2.62-8.24,14,14,0,0,1,11.9-6q13.69,0,27.4,0a16.13,16.13,0,0,1,2.86.21,13.77,13.77,0,0,1,10.89,8.85,29.5,29.5,0,0,1,1,4V65.25l-.21,1.18a13.89,13.89,0,0,1-8.81,10.86A28.23,28.23,0,0,1,65.33,78.31ZM38.24,50A11.82,11.82,0,1,0,50.08,38.15,11.86,11.86,0,0,0,38.24,50ZM65.41,38.14a3.54,3.54,0,1,0-3.53-3.56A3.55,3.55,0,0,0,65.41,38.14Z"/></g></svg>