<svg xmlns="http://www.w3.org/2000/svg" viewBox="0 0 100 100"><defs><style>.cls-1{fill:#ba68c8;}.cls-2{fill:#fafafa;}</style></defs><g id="background"><rect class="cls-1" x="0.39" y="0.39" width="99.21" height="99.21" rx="49.61"/></g><g id="Layer_6" data-name="Layer 6"><path class="cls-2" d="M78.77,23.22c0-1.13-.35-1.5-1.47-1.5q-24.37,0-48.74,0a1.49,1.49,0,0,0-1.44.8c-1.14,2-2.32,4-3.45,6a2.46,2.46,0,0,0-.32,1.19q0,19.73,0,39.45c0,1.17.33,1.5,1.52,1.5H36.38v.67c0,1.81,0,3.61,0,5.42a1.47,1.47,0,0,0,.86,1.55h8a10.45,10.45,0,0,0,1-.71L53.5,71a1.42,1.42,0,0,1,1-.39c3.06,0,6.12,0,9.17,0a2,2,0,0,0,1.44-.57q6.48-6,13-11.93a1.93,1.93,0,0,0,.67-1.55Q78.76,39.91,78.77,23.22ZM46.09,67.91a1.93,1.93,0,0,1-.76.51c-.74.22-1.33-.32-1.34-1.17,0-1.51,0-3,0-4.53V62H33.48C32.37,62,32,61.61,32,60.5q0-15.93,0-31.88c0-1.12.36-1.49,1.48-1.49H70.75c1.16,0,1.52.37,1.52,1.53q0,12.37,0,24.75a1.91,1.91,0,0,1-.62,1.46q-3.25,3.23-6.48,6.49a2,2,0,0,1-1.48.6c-3.68,0-7.36,0-11,0a1.3,1.3,0,0,0-1,.42Q48.88,65.15,46.09,67.91Z"/><path class="cls-2" d="M46.16,64.77V61.3c0-1.13-.36-1.5-1.48-1.5-3.28,0-6.56,0-9.83,0-.53,0-.69-.14-.69-.67,0-9.73,0-19.45,0-29.17,0-.2,0-.4,0-.63H70.07c0,.19,0,.38,0,.57q0,11.46,0,22.93a1.15,1.15,0,0,1-.38.91q-2.85,2.82-5.66,5.67a1.29,1.29,0,0,1-1,.39c-3.64,0-7.29,0-10.93,0a2.18,2.18,0,0,0-1.71.7C49.23,61.77,48,63,46.71,64.25ZM45.1,44q0,3.38,0,6.75c0,1,.35,1.35,1.31,1.36q1.9,0,3.81,0c1,0,1.35-.4,1.35-1.35V37.25c0-1-.41-1.37-1.38-1.38H46.49c-1,0-1.38.39-1.39,1.41Zm17.33,0c0-2.27,0-4.53,0-6.8,0-1-.38-1.34-1.32-1.35H57.35c-1,0-1.36.38-1.36,1.33Q56,44,56,50.79c0,1,.37,1.33,1.34,1.34,1.25,0,2.5,0,3.75,0,1,0,1.35-.35,1.35-1.37C62.44,48.51,62.43,46.26,62.43,44Z"/></g></svg>