<svg xmlns="http://www.w3.org/2000/svg" viewBox="0 0 100 100"><defs><style>.cls-1{fill:#ba68c8;}</style></defs><g id="Layer_6" data-name="Layer 6"><path class="cls-1" d="M78.77,23.29c0-1.14-.35-1.5-1.47-1.5H28.56a1.48,1.48,0,0,0-1.44.81c-1.14,2-2.32,4-3.45,6a2.49,2.49,0,0,0-.32,1.19q0,19.72,0,39.45c0,1.17.33,1.5,1.52,1.5H36.38v.67c0,1.81,0,3.61,0,5.42a1.49,1.49,0,0,0,.86,1.56h8a10.54,10.54,0,0,0,1-.72q3.65-3.25,7.27-6.55a1.42,1.42,0,0,1,1-.39c3.06,0,6.12,0,9.17,0a2,2,0,0,0,1.44-.57q6.48-6,13-11.93a1.91,1.91,0,0,0,.67-1.55Q78.76,40,78.77,23.29ZM46.09,68a1.93,1.93,0,0,1-.76.51c-.74.22-1.33-.31-1.34-1.17,0-1.51,0-3,0-4.53V62H33.48C32.37,62,32,61.67,32,60.56q0-15.93,0-31.87c0-1.13.36-1.49,1.48-1.49H70.75c1.16,0,1.52.36,1.52,1.52q0,12.38,0,24.75a1.94,1.94,0,0,1-.62,1.47q-3.25,3.23-6.48,6.48a1.91,1.91,0,0,1-1.48.6c-3.68,0-7.36,0-11,0a1.3,1.3,0,0,0-1,.42Q48.88,65.21,46.09,68Z"/><path class="cls-1" d="M46.16,64.83V61.36c0-1.12-.36-1.49-1.48-1.49-3.28,0-6.56,0-9.83,0-.53,0-.69-.14-.69-.68,0-9.72,0-19.45,0-29.17,0-.2,0-.39,0-.63H70.07c0,.19,0,.38,0,.58q0,11.46,0,22.92a1.15,1.15,0,0,1-.38.91q-2.85,2.82-5.66,5.67a1.25,1.25,0,0,1-1,.39c-3.64,0-7.29,0-10.93,0a2.19,2.19,0,0,0-1.71.71c-1.22,1.27-2.49,2.5-3.74,3.75ZM45.1,44.09q0,3.36,0,6.74c0,1,.35,1.35,1.31,1.36q1.9,0,3.81,0c1,0,1.35-.39,1.35-1.34V37.31c0-1-.41-1.37-1.38-1.38H46.49c-1,0-1.38.4-1.39,1.42Zm17.33,0c0-2.26,0-4.53,0-6.8,0-1-.38-1.34-1.32-1.35H57.35c-1,0-1.36.38-1.36,1.33q0,6.8,0,13.6c0,1,.37,1.32,1.34,1.34h3.75c1,0,1.35-.36,1.35-1.38C62.44,48.57,62.43,46.33,62.43,44.08Z"/></g></svg>