<svg xmlns="http://www.w3.org/2000/svg" viewBox="0 0 100 100"><defs><style>.cls-1{fill:#4fc3f7;}</style></defs><g id="Layer_1" data-name="Layer 1"><path class="cls-1" d="M78.35,34.36v.78c-.89,1.46-1.78,2.91-2.65,4.38a1.23,1.23,0,0,0-.19.71c.08,1.1.24,2.2.33,3.3A28.3,28.3,0,0,1,74.1,55.72a30.53,30.53,0,0,1-5.66,9.41,25.14,25.14,0,0,1-7.2,5.93,32.16,32.16,0,0,1-13.51,3.52,46.56,46.56,0,0,1-11.48-.76,37.36,37.36,0,0,1-9.71-3,20.09,20.09,0,0,1-3-2A1.53,1.53,0,0,1,23.06,67a1.63,1.63,0,0,1,1.53-1.08,8.81,8.81,0,0,1,.89,0,31.21,31.21,0,0,0,6.33-.36,14.24,14.24,0,0,0,6.44-2.86l-.84-.23a22.49,22.49,0,0,1-10-5.43,1.81,1.81,0,0,1-.64-1.82,1.73,1.73,0,0,1,1.44-1.28c.51-.11,1-.28,1.48-.41-1.06-.73-2.12-1.37-3.07-2.15a13.73,13.73,0,0,1-4.82-8.49,2,2,0,0,1,0-.76,1.66,1.66,0,0,1,2.11-1.26c.59.15,1.17.34,1.82.53-1.29-3.48-1.47-4.5-1.22-7a10.24,10.24,0,0,1,1.92-5,1.68,1.68,0,0,1,2.9.08c.18.28.33.58.5.86A24.37,24.37,0,0,0,45.59,42.12c1,.25,2.07.38,3.16.58,0-.42,0-.71,0-1a14.41,14.41,0,0,1,4.12-10.34,12,12,0,0,1,13.69-2.45.87.87,0,0,0,.87,0q3.16-1.57,6.34-3.11a3.08,3.08,0,0,1,1-.33A1.69,1.69,0,0,1,76.31,28c-.76,1.57-1.55,3.13-2.33,4.69-.08.16-.15.33-.26.57.82-.06,1.56-.07,2.28-.19A2,2,0,0,1,78.35,34.36Z"/></g></svg>