<svg xmlns="http://www.w3.org/2000/svg" viewBox="0 0 100 100"><defs><style>.cls-1{fill:#4fc3f7;}.cls-2{fill:#fafafa;}</style></defs><g id="background"><rect class="cls-1" x="0.39" y="0.39" width="99.21" height="99.21" rx="49.61"/></g><g id="Layer_1" data-name="Layer 1"><path class="cls-2" d="M78.35,34.3v.77c-.89,1.46-1.78,2.92-2.65,4.39a1.19,1.19,0,0,0-.19.71c.08,1.1.24,2.19.33,3.29a28.35,28.35,0,0,1-1.74,12.2,30.48,30.48,0,0,1-5.66,9.4A25.14,25.14,0,0,1,61.24,71a32.17,32.17,0,0,1-13.51,3.53,46.57,46.57,0,0,1-11.48-.77,37.36,37.36,0,0,1-9.71-3,19.35,19.35,0,0,1-3-2,1.52,1.52,0,0,1-.45-1.85,1.62,1.62,0,0,1,1.53-1.07,6.61,6.61,0,0,1,.89,0,31.21,31.21,0,0,0,6.33-.36,14.24,14.24,0,0,0,6.44-2.86l-.84-.24a22.49,22.49,0,0,1-10-5.43,1.8,1.8,0,0,1-.64-1.82,1.76,1.76,0,0,1,1.44-1.28c.51-.11,1-.27,1.48-.41-1.06-.73-2.12-1.36-3.07-2.14a13.78,13.78,0,0,1-4.82-8.5,1.94,1.94,0,0,1,0-.76,1.65,1.65,0,0,1,2.11-1.25c.59.15,1.17.34,1.82.52-1.29-3.47-1.47-4.49-1.22-7a10.32,10.32,0,0,1,1.92-5,1.68,1.68,0,0,1,2.9.09c.18.27.33.57.5.85A24.41,24.41,0,0,0,45.59,42.06c1,.24,2.07.38,3.16.57,0-.41,0-.7,0-1A14.41,14.41,0,0,1,52.87,31.3a12,12,0,0,1,13.69-2.46.9.9,0,0,0,.87,0q3.16-1.58,6.34-3.12a3.06,3.06,0,0,1,1-.32A1.68,1.68,0,0,1,76.31,28c-.76,1.58-1.55,3.13-2.33,4.7-.08.16-.15.32-.26.57.82-.07,1.56-.08,2.28-.19A1.94,1.94,0,0,1,78.35,34.3Z"/></g></svg>