<svg xmlns="http://www.w3.org/2000/svg" viewBox="0 0 100 100"><defs><style>.cls-1{fill:#e53935;}.cls-2{fill:#fafafa;}</style></defs><g id="background"><rect class="cls-1" x="0.39" y="0.39" width="99.21" height="99.21" rx="49.61"/></g><g id="Layer_4" data-name="Layer 4"><path class="cls-2" d="M81.86,43.65V55.22c0,.49-.09,1-.12,1.47a47.05,47.05,0,0,1-.85,8c-1.11,4.62-4.19,7.51-8.63,7.94-2.31.22-4.63.36-7,.46-8,.32-15.91.48-23.87.18a132.43,132.43,0,0,1-14.08-.78A9.29,9.29,0,0,1,21,68.91a13,13,0,0,1-2.31-6.66,146.5,146.5,0,0,1-.4-19.2,41.29,41.29,0,0,1,.9-9.07c1.07-4.2,3.55-7,7.89-7.78a56.6,56.6,0,0,1,7.37-.57c9.46-.44,18.94-.5,28.41-.11,3.22.13,6.47.23,9.67.62a9.1,9.1,0,0,1,8,6.57,26.2,26.2,0,0,1,1.1,7C81.69,41,81.78,42.33,81.86,43.65Zm-39.93,5c0,2.44,0,4.89,0,7.33s2,3.57,4.1,2.44q6.74-3.62,13.46-7.23a2.64,2.64,0,0,0,0-4.88L46,39c-2.1-1.14-4.08,0-4.08,2.46S41.93,46.26,41.93,48.69Z"/></g></svg>